<?xml version="1.0" encoding="UTF-8"?>
<svg width="32px" height="32px" viewBox="0 0 32 32" version="1.1" xmlns="http://www.w3.org/2000/svg" xmlns:xlink="http://www.w3.org/1999/xlink">
    <!-- Generator: Sketch 57 (83077) - https://sketch.com -->
    <title>Connect</title>
    <desc>Created with Sketch.</desc>
    <g id="Connect" stroke="none" stroke-width="1" fill="none" fill-rule="evenodd">
        <g id="pictograms/untitled/" fill="#000000">
            <path d="M16.3599,1.9997 C18.2129,1.9997 19.7199,3.5077 19.7199,5.3597 C19.7199,7.09087293 18.404544,8.5200464 16.7205645,8.70048784 L16.7205645,13.0189243 C18.404544,13.1994764 19.7199,14.6294613 19.7199,16.3597 C19.7199,18.0908729 18.404544,19.5200464 16.7205645,19.7004878 L16.7200212,24.0188661 C18.2860815,24.1865174 19.533454,25.4347336 19.7007944,27.0002031 L24.0190056,27.0002031 C24.1989902,25.3164478 25.6283858,23.9997 27.3599,23.9997 C29.2129,23.9997 30.7199,25.5077 30.7199,27.3597 C30.7199,29.2127 29.2129,30.7197 27.3599,30.7197 C25.6287271,30.7197 24.1995536,29.404344 24.0191122,27.7203645 L19.7006878,27.7203645 C19.5202464,29.404344 18.0910729,30.7197 16.3599,30.7197 C14.5069,30.7197 12.9999,29.2127 12.9999,27.3597 C12.9999,25.6291203 14.3157746,24.1989127 16.0002314,24.0188176 L16.0002314,19.7005944 C14.3157746,19.5206098 12.9999,18.0912142 12.9999,16.3597 C12.9999,14.6291203 14.3157746,13.1989127 16.0002314,13.0188176 L15.9998816,8.70055701 C14.4341051,8.53308759 13.1868786,7.28605339 13.0191122,5.7203645 L8.70068784,5.7203645 C8.5202464,7.40434398 7.09107293,8.7197 5.3599,8.7197 C3.5069,8.7197 1.9999,7.2127 1.9999,5.3597 C1.9999,3.5077 3.5069,1.9997 5.3599,1.9997 C7.09141418,1.9997 8.52080983,3.31644782 8.7007944,5.00020313 L13.0190056,5.00020313 C13.1989902,3.31644782 14.6283858,1.9997 16.3599,1.9997 Z M5.3599,23.9997 C7.2129,23.9997 8.7199,25.5077 8.7199,27.3597 C8.7199,29.2127 7.2129,30.7197 5.3599,30.7197 C3.5069,30.7197 1.9999,29.2127 1.9999,27.3597 C1.9999,25.5077 3.5069,23.9997 5.3599,23.9997 Z M16.3599,24.7197 C14.9039,24.7197 13.7199,25.9047 13.7199,27.3597 C13.7199,28.8157 14.9039,29.9997 16.3599,29.9997 C17.8159,29.9997 18.9999,28.8157 18.9999,27.3597 C18.9999,25.9047 17.8159,24.7197 16.3599,24.7197 Z M5.3599,24.7197 C3.9039,24.7197 2.7199,25.9047 2.7199,27.3597 C2.7199,28.8157 3.9039,29.9997 5.3599,29.9997 C6.8159,29.9997 7.9999,28.8157 7.9999,27.3597 C7.9999,25.9047 6.8159,24.7197 5.3599,24.7197 Z M27.3599,24.7197 C25.9039,24.7197 24.7199,25.9047 24.7199,27.3597 C24.7199,28.8157 25.9039,29.9997 27.3599,29.9997 C28.8159,29.9997 29.9999,28.8157 29.9999,27.3597 C29.9999,25.9047 28.8159,24.7197 27.3599,24.7197 Z M5.3599,13.0148 C7.2129,13.0148 8.7199,14.5228 8.7199,16.3748 C8.7199,18.2278 7.2129,19.7348 5.3599,19.7348 C3.5069,19.7348 1.9999,18.2278 1.9999,16.3748 C1.9999,14.5228 3.5069,13.0148 5.3599,13.0148 Z M27.3599,13.0148 C29.2129,13.0148 30.7199,14.5228 30.7199,16.3748 C30.7199,18.2278 29.2129,19.7348 27.3599,19.7348 C25.5069,19.7348 23.9999,18.2278 23.9999,16.3748 C23.9999,14.5228 25.5069,13.0148 27.3599,13.0148 Z M5.3599,13.7348 C3.9039,13.7348 2.7199,14.9198 2.7199,16.3748 C2.7199,17.8308 3.9039,19.0148 5.3599,19.0148 C6.8159,19.0148 7.9999,17.8308 7.9999,16.3748 C7.9999,14.9198 6.8159,13.7348 5.3599,13.7348 Z M27.3599,13.7348 C25.9039,13.7348 24.7199,14.9198 24.7199,16.3748 C24.7199,17.8308 25.9039,19.0148 27.3599,19.0148 C28.8159,19.0148 29.9999,17.8308 29.9999,16.3748 C29.9999,14.9198 28.8159,13.7348 27.3599,13.7348 Z M16.3599,13.7197 C14.9039,13.7197 13.7199,14.9047 13.7199,16.3597 C13.7199,17.8157 14.9039,18.9997 16.3599,18.9997 C17.8159,18.9997 18.9999,17.8157 18.9999,16.3597 C18.9999,14.9047 17.8159,13.7197 16.3599,13.7197 Z M27.3599,1.9997 C29.2129,1.9997 30.7199,3.5077 30.7199,5.3597 C30.7199,7.2127 29.2129,8.7197 27.3599,8.7197 C25.5069,8.7197 23.9999,7.2127 23.9999,5.3597 C23.9999,3.5077 25.5069,1.9997 27.3599,1.9997 Z M16.3599,2.7197 C14.9039,2.7197 13.7199,3.9047 13.7199,5.3597 C13.7199,6.8157 14.9039,7.9997 16.3599,7.9997 C17.8159,7.9997 18.9999,6.8157 18.9999,5.3597 C18.9999,3.9047 17.8159,2.7197 16.3599,2.7197 Z M5.3599,2.7197 C3.9039,2.7197 2.7199,3.9047 2.7199,5.3597 C2.7199,6.8157 3.9039,7.9997 5.3599,7.9997 C6.8159,7.9997 7.9999,6.8157 7.9999,5.3597 C7.9999,3.9047 6.8159,2.7197 5.3599,2.7197 Z M27.3599,2.7197 C25.9039,2.7197 24.7199,3.9047 24.7199,5.3597 C24.7199,6.8157 25.9039,7.9997 27.3599,7.9997 C28.8159,7.9997 29.9999,6.8157 29.9999,5.3597 C29.9999,3.9047 28.8159,2.7197 27.3599,2.7197 Z" id="Fill-29"></path>
        </g>
    </g>
</svg>