<?xml version="1.0" encoding="UTF-8"?>
<svg width="32px" height="32px" viewBox="0 0 32 32" version="1.1" xmlns="http://www.w3.org/2000/svg" xmlns:xlink="http://www.w3.org/1999/xlink">
    <!-- Generator: Sketch 57 (83077) - https://sketch.com -->
    <title>Create</title>
    <desc>Created with Sketch.</desc>
    <g id="Create" stroke="none" stroke-width="1" fill="none" fill-rule="evenodd">
        <g id="pictograms/miscellaneous/adding" fill="#000000">
            <path d="M4.36,25 L4.36,27.638 L7,27.639 L7,28.36 L4.36,28.359 L4.36,31 L3.64,31 L3.64,28.359 L1,28.36 L1,27.639 L3.64,27.638 L3.64,25 L4.36,25 Z M28.3444,10.016 L28.3444,26.016 C28.3444,27.317 27.2854,28.376 25.9844,28.376 L9.9844,28.376 L9.9844,27.655 L25.9844,27.655 C26.8884,27.655 27.6244,26.92 27.6244,26.016 L27.6244,10.016 L28.3444,10.016 Z M21.9842,3.6556 L21.9842,4.3756 L5.9842,4.3756 C5.0802,4.3756 4.3442,5.1116 4.3442,6.0156 L4.3442,22.0156 L3.6242,22.0156 L3.6242,6.0156 C3.6242,4.7136 4.6832,3.6556 5.9842,3.6556 L21.9842,3.6556 Z M28.36,1.001 L28.36,3.639 L30.999,3.64 L30.999,4.36 L28.36,4.359 L28.36,7 L27.64,7 L27.64,4.359 L25,4.36 L25,3.64 L27.64,3.639 L27.64,1.001 L28.36,1.001 Z" id="Fill-6"></path>
        </g>
    </g>
</svg>