<?xml version="1.0" encoding="UTF-8"?>
<svg width="32px" height="32px" viewBox="0 0 32 32" version="1.1" xmlns="http://www.w3.org/2000/svg" xmlns:xlink="http://www.w3.org/1999/xlink">
    <!-- Generator: Sketch 57 (83077) - https://sketch.com -->
    <title>Education</title>
    <desc>Created with Sketch.</desc>
    <g id="Education" stroke="none" stroke-width="1" fill="none" fill-rule="evenodd">
        <g id="pictograms/education/student" fill="#000000">
            <path d="M13.5957,18.7702 C11.1317,17.6752 9.5397,15.2292 9.5397,12.5392 C9.5397,11.5472 9.7567,10.5982 10.1657,9.7092 C14.2027,9.7062 21.2407,9.7042 22.5537,9.7072 C22.9637,10.5972 23.1797,11.5472 23.1797,12.5392 C23.1797,15.2282 21.5917,17.6732 19.1337,18.7702 C18.9917,18.8332 18.9077,18.9792 18.9217,19.1332 C18.9357,19.2862 19.0467,19.4142 19.1967,19.4492 C20.8477,19.8422 22.3627,20.5522 23.6877,21.4862 L20.5777,26.8682 L16.5397,24.5372 C16.4287,24.4742 16.2917,24.4742 16.1797,24.5372 L12.1417,26.8682 L9.0337,21.4892 C10.3607,20.5532 11.8777,19.8422 13.5327,19.4492 C13.6827,19.4142 13.7937,19.2862 13.8077,19.1322 C13.8227,18.9782 13.7367,18.8332 13.5957,18.7702 L13.5957,18.7702 Z M16.3597,0.7752 L26.6397,6.7092 L23.1497,8.7252 L23.1497,7.4092 C23.1497,7.2782 23.0787,7.1572 22.9637,7.0942 L22.5107,6.8402 C21.0567,6.0202 19.2487,4.9992 16.3897,4.9992 C13.4907,4.9992 11.6447,6.0352 10.1617,6.8672 L9.7567,7.0942 C9.6407,7.1572 9.5697,7.2782 9.5697,7.4092 L9.5697,8.7262 L6.0797,6.7092 L16.3597,0.7752 Z M22.4297,9.0142 C21.7037,8.9922 20.0617,8.9872 16.2467,8.9872 C14.6667,8.9872 12.7017,8.9882 10.2897,8.9892 L10.2897,7.6212 L10.5147,7.4952 C11.9247,6.7042 13.6787,5.7192 16.3897,5.7192 C19.0597,5.7192 20.7767,6.6882 22.1567,7.4672 L22.4297,7.6202 L22.4297,9.0142 Z M2.9997,31.3592 L3.7197,31.3592 C3.7197,27.6652 5.5537,24.2182 8.4527,21.9222 L11.6987,27.5402 C11.7967,27.7122 12.0167,27.7712 12.1897,27.6712 L16.3597,25.2652 L20.5307,27.6712 C20.5867,27.7042 20.6487,27.7192 20.7097,27.7192 C20.8337,27.7192 20.9547,27.6552 21.0217,27.5402 L24.2677,21.9202 C27.1657,24.2162 28.9997,27.6642 28.9997,31.3592 L29.7197,31.3592 C29.7197,25.7752 25.7917,20.7112 20.2567,18.9942 C22.4967,17.6392 23.8997,15.1962 23.8997,12.5392 C23.8997,11.4772 23.6727,10.4582 23.2467,9.5012 L27.5397,7.0202 C27.6517,6.9572 27.7197,6.8372 27.7197,6.7092 C27.7197,6.5802 27.6517,6.4612 27.5397,6.3972 L16.5397,0.0472 C16.4287,-0.0158 16.2907,-0.0158 16.1797,0.0472 L5.1797,6.3972 C5.0687,6.4612 4.9997,6.5802 4.9997,6.7092 C4.9997,6.7232 5.0087,6.7342 5.0107,6.7482 L5.0107,15.3592 L5.7297,15.3592 L5.7297,7.3382 L9.4727,9.5012 C9.0477,10.4582 8.8197,11.4772 8.8197,12.5392 C8.8197,15.1982 10.2257,17.6412 12.4707,18.9942 C6.9307,20.7112 2.9997,25.7752 2.9997,31.3592 L2.9997,31.3592 Z" id="Fill-1"></path>
        </g>
    </g>
</svg>