<?xml version="1.0" encoding="UTF-8"?>
<svg width="32px" height="32px" viewBox="0 0 32 32" version="1.1" xmlns="http://www.w3.org/2000/svg" xmlns:xlink="http://www.w3.org/1999/xlink">
    <!-- Generator: Sketch 57 (83077) - https://sketch.com -->
    <title>Toolbox</title>
    <desc>Created with Sketch.</desc>
    <g id="Toolbox" stroke="none" stroke-width="1" fill="none" fill-rule="evenodd">
        <g id="pictograms/IT-service" fill="#000000">
            <path d="M20.6056,14.9983 L20.0966,14.4893 L29.4076,5.1793 C29.7906,4.7963 30.0006,4.2873 30.0006,3.7463 C30.0006,3.2053 29.7906,2.6963 29.4076,2.3133 C28.6416,1.5473 27.3076,1.5473 26.5416,2.3133 L17.2306,11.6233 L16.7226,11.1153 L26.0326,1.8043 C27.0696,0.7663 28.8786,0.7663 29.9166,1.8043 C30.4356,2.3233 30.7206,3.0123 30.7206,3.7463 C30.7206,4.4793 30.4356,5.1693 29.9166,5.6873 L20.6056,14.9983 Z" id="Fill-1"></path>
            <polygon id="Fill-3" points="18.9181 13.3108 18.4091 12.8018 27.6911 3.5198 28.2001 4.0288"></polygon>
            <path d="M2.1148,30.863 L0.8578,29.606 L3.3078,26.91 L4.8098,28.412 L2.1148,30.863 Z M4.8228,27.406 L12.2988,19.93 L11.7898,19.422 L4.3138,26.898 L3.5508,26.134 C3.4808,26.064 3.3728,26.023 3.2878,26.029 C3.1888,26.031 3.0958,26.074 3.0298,26.147 L0.0938,29.375 C-0.0352,29.517 -0.0312,29.736 0.1058,29.872 L1.8488,31.615 C1.9188,31.685 2.0108,31.72 2.1028,31.72 C2.1898,31.72 2.2768,31.69 2.3448,31.627 L5.5728,28.691 C5.6458,28.625 5.6888,28.531 5.6908,28.433 C5.6938,28.335 5.6558,28.239 5.5858,28.17 L4.8228,27.406 Z" id="Fill-5"></path>
            <path d="M29.881,27.5432 L26.271,23.9322 C25.351,23.0122 23.854,23.0112 22.933,23.9322 C22.013,24.8522 22.013,26.3492 22.933,27.2692 L26.544,30.8802 C24.5,31.6302 22.176,31.1522 20.614,29.5892 C19.06,28.0342 18.549,25.6982 19.314,23.6362 C19.328,23.5982 19.331,23.5602 19.332,23.5222 C19.332,23.5162 19.335,23.5122 19.335,23.5062 C19.333,23.4152 19.297,23.3292 19.234,23.2632 C19.232,23.2612 19.233,23.2582 19.231,23.2562 L19.224,23.2492 C19.223,23.2492 19.223,23.2492 19.223,23.2492 L8.713,12.7402 C8.712,12.7392 8.712,12.7392 8.711,12.7382 L8.704,12.7312 C8.702,12.7302 8.7,12.7302 8.698,12.7292 C8.632,12.6652 8.546,12.6282 8.454,12.6272 C8.449,12.6272 8.445,12.6292 8.441,12.6292 C8.402,12.6302 8.363,12.6342 8.325,12.6482 C6.262,13.4122 3.927,12.9012 2.373,11.3482 C0.811,9.7852 0.331,7.4622 1.082,5.4182 L4.693,9.0282 C5.152,9.4892 5.757,9.7192 6.361,9.7192 C6.965,9.7192 7.57,9.4892 8.03,9.0282 C8.95,8.1082 8.95,6.6112 8.03,5.6912 L4.419,2.0802 C6.464,1.3302 8.787,1.8102 10.349,3.3712 C11.904,4.9262 12.414,7.2642 11.649,9.3262 C11.634,9.3642 11.631,9.4022 11.631,9.4412 C11.63,9.4462 11.628,9.4502 11.628,9.4562 C11.629,9.5472 11.666,9.6342 11.729,9.6992 C11.731,9.7012 11.73,9.7042 11.732,9.7062 L11.738,9.7122 L11.74,9.7142 L22.25,20.2222 C22.25,20.2222 22.25,20.2232 22.251,20.2232 L22.257,20.2302 C22.259,20.2312 22.262,20.2312 22.263,20.2322 C22.33,20.2962 22.417,20.3342 22.509,20.3342 C22.51,20.3342 22.511,20.3352 22.512,20.3352 C22.514,20.3352 22.516,20.3332 22.519,20.3322 C22.558,20.3322 22.598,20.3282 22.637,20.3132 C24.699,19.5482 27.036,20.0592 28.59,21.6132 C30.152,23.1752 30.632,25.4992 29.881,27.5432 M29.099,21.1042 C27.404,19.4082 24.884,18.8272 22.616,19.5712 L12.39,9.3472 C13.135,7.0792 12.554,4.5592 10.858,2.8622 C8.955,0.9602 6.046,0.4592 3.619,1.6192 C3.585,1.6352 3.558,1.6602 3.532,1.6842 C3.528,1.6882 3.523,1.6862 3.52,1.6892 C3.518,1.6912 3.519,1.6942 3.517,1.6952 C3.455,1.7602 3.421,1.8452 3.418,1.9342 C3.418,1.9392 3.416,1.9432 3.416,1.9492 C3.417,2.0002 3.426,2.0502 3.449,2.0992 C3.466,2.1342 3.49,2.1612 3.515,2.1882 C3.518,2.1912 3.517,2.1952 3.52,2.1982 L3.533,2.2122 C3.534,2.2122 3.535,2.2132 3.535,2.2142 L7.521,6.2002 C7.829,6.5082 7.999,6.9202 7.999,7.3592 C7.999,7.7992 7.829,8.2112 7.521,8.5202 C6.904,9.1362 5.819,9.1362 5.201,8.5202 L1.2,4.5182 C1.196,4.5152 1.191,4.5162 1.188,4.5132 C1.161,4.4882 1.135,4.4642 1.101,4.4482 C1.051,4.4242 1,4.4152 0.949,4.4142 C0.945,4.4142 0.942,4.4162 0.937,4.4162 C0.847,4.4182 0.762,4.4532 0.697,4.5162 C0.695,4.5172 0.693,4.5172 0.691,4.5182 C0.688,4.5222 0.689,4.5272 0.686,4.5302 C0.661,4.5562 0.637,4.5832 0.621,4.6172 C-0.539,7.0442 -0.039,9.9542 1.864,11.8562 C3.076,13.0692 4.71,13.7182 6.372,13.7182 C7.033,13.7182 7.696,13.5982 8.342,13.3872 L18.572,23.6162 C17.828,25.8822 18.409,28.4022 20.105,30.0982 C21.324,31.3172 22.956,31.9602 24.61,31.9602 C25.537,31.9602 26.472,31.7582 27.344,31.3412 C27.379,31.3252 27.406,31.3002 27.433,31.2752 C27.436,31.2722 27.441,31.2732 27.443,31.2712 C27.445,31.2692 27.444,31.2672 27.445,31.2652 C27.508,31.2002 27.543,31.1152 27.545,31.0262 C27.545,31.0212 27.547,31.0172 27.547,31.0122 C27.547,30.9612 27.537,30.9102 27.514,30.8612 C27.497,30.8272 27.473,30.8002 27.448,30.7742 C27.445,30.7712 27.447,30.7652 27.443,30.7622 L23.442,26.7602 C23.134,26.4522 22.964,26.0402 22.964,25.6012 C22.964,25.1612 23.134,24.7502 23.442,24.4412 C24.059,23.8252 25.144,23.8242 25.762,24.4412 L29.763,28.4422 C29.767,28.4462 29.772,28.4442 29.776,28.4482 C29.802,28.4722 29.828,28.4972 29.862,28.5132 C29.913,28.5372 29.965,28.5482 30.017,28.5482 L30.018,28.5482 C30.018,28.5482 30.018,28.5472 30.019,28.5472 C30.103,28.5472 30.178,28.5092 30.243,28.4552 C30.251,28.4472 30.264,28.4512 30.272,28.4422 C30.283,28.4322 30.279,28.4162 30.288,28.4042 C30.305,28.3822 30.33,28.3692 30.342,28.3432 C31.502,25.9162 31.003,23.0072 29.099,21.1042" id="Fill-8"></path>
        </g>
    </g>
</svg>